<svg xmlns="http://www.w3.org/2000/svg" version="1.1" xmlns:xlink="http://www.w3.org/1999/xlink" xmlns:svgjs="http://svgjs.dev/svgjs" width="1000" height="803" viewBox="0 0 1000 803"><g transform="matrix(1,0,0,1,0,0)"><svg viewBox="0 0 448 360" data-background-color="#ffffff" preserveAspectRatio="xMidYMid meet" height="803" width="1000" xmlns="http://www.w3.org/2000/svg" xmlns:xlink="http://www.w3.org/1999/xlink"><g id="tight-bounds" transform="matrix(1,0,0,1,0,0)"><svg viewBox="0 0 448 360" height="360" width="448"><g><svg></svg></g><g><svg viewBox="0 0 448 360" height="360" width="448"><g><path xmlns="http://www.w3.org/2000/svg" d="M193.855 44.683c1.378 0 2.494 1.116 2.495 2.494 0 1.378-1.116 2.494-2.495 2.495h-23.846l-17.167 17.167c-0.973 0.973-2.551 0.973-3.53 0-0.973-0.973-0.973-2.551 0-3.529l13.644-13.645h-40.378c-11.518 0-19.151 2.688-23.815 8.113-4.739 5.519-6.66 14.056-6.66 25.63 0 0.069 0 0.137-0.006 0.206l0.212 36.692 14.692-14.692c0.973-0.973 2.551-0.973 3.53 0 0.973 0.973 0.973 2.551 0 3.53l-18.178 18.178c0.206 35.832 0.193 71.358-0.013 107.19 25.486 25.2 50.617 50.312 75.811 75.791h25.38c1.378 0 2.494 1.116 2.495 2.495 0 1.378-1.116 2.494-2.495 2.494h-20.448l25.942 26.241 0.006-0.006c8.188 8.188 15.577 12.859 22.824 13.413 7.146 0.543 14.442-2.956 22.586-11.093l28.555-28.555h-20.722c-1.378 0-2.494-1.116-2.495-2.494 0-1.378 1.116-2.494 2.495-2.495h25.711l16.625-16.625c0.973-0.973 2.551-0.973 3.529 0 0.973 0.973 0.973 2.551 0 3.53l-13.101 13.102h40.377c11.518 0 19.151-2.688 23.815-8.113 4.739-5.519 6.66-14.056 6.66-25.63h0.013l-0.212-36.898-16.014 16.014c-0.973 0.973-2.551 0.973-3.53 0-0.973-0.973-0.973-2.551 0-3.53l19.5-19.5c-0.206-35.832-0.193-71.358 0.013-107.19-25.486-25.2-50.617-50.312-75.811-75.791h-26.147c-1.378 0-2.494-1.116-2.495-2.495 0-1.378 1.116-2.494 2.495-2.494h21.215l-25.824-26.123c-0.044-0.037-0.081-0.075-0.124-0.112-8.188-8.188-15.577-12.859-22.824-13.413-7.146-0.543-14.442 2.956-22.586 11.093l-28.555 28.555h18.858zM122.578 44.683h45.367l32.078-32.078c9.248-9.248 17.81-13.195 26.484-12.534 8.568 0.649 16.956 5.824 25.985 14.854 0.05 0.05 0.094 0.094 0.137 0.143l29.278 29.615h43.508c13.071 0 21.919 3.268 27.594 9.871 5.6 6.517 7.864 16.101 7.864 28.867 0 0.081-0.006 0.156-0.012 0.23l-0.225 39.742 28.43 28.112 0.006-0.006c9.03 9.03 14.206 17.411 14.854 25.985 0.661 8.674-3.293 17.236-12.534 26.484l-30.768 30.768 0.237 41.843h0.012c0 12.765-2.27 22.35-7.864 28.867-5.675 6.604-14.524 9.872-27.594 9.871h-45.366l-32.078 32.078c-9.248 9.248-17.81 13.195-26.484 12.534-8.568-0.649-16.956-5.824-25.985-14.854l0.006-0.006-29.421-29.758h-43.509c-13.071 0-21.919-3.268-27.594-9.872-5.6-6.517-7.864-16.101-7.863-28.866h0.012l0.231-39.972-28.293-27.969c-0.05-0.044-0.1-0.087-0.143-0.137-9.03-9.03-14.206-17.411-14.854-25.985-0.661-8.674 3.293-17.236 12.534-26.484l30.768-30.768-0.237-41.607c-0.006-0.075-0.012-0.156-0.012-0.23 0-12.765 2.27-22.35 7.864-28.867 5.675-6.604 14.524-9.872 27.594-9.871zM87.682 179.997l-0.274-47.724-27.276 27.276c-8.138 8.138-11.636 15.44-11.094 22.587 0.549 7.246 5.226 14.642 13.413 22.823 0.037 0.037 0.081 0.081 0.113 0.125l24.837 24.551 0.281-49.644zM92.303 241.483l-0.2 35.09h0.013c0 11.58 1.921 20.117 6.66 25.63 4.664 5.432 12.297 8.113 23.815 8.113h38.576l-33.55-33.936-35.308-34.903zM325.415 49.672h-38.575l33.549 33.936 35.308 34.902 0.2-34.884c-0.006-0.069-0.006-0.137-0.007-0.205 0-11.58-1.921-20.117-6.66-25.63-4.664-5.432-12.297-8.113-23.815-8.113zM360.599 130.352l-0.281 49.645 0.274 47.724 27.276-27.276c8.138-8.138 11.636-15.44 11.094-22.587-0.549-7.252-5.226-14.642-13.413-22.824l0.006-0.006-24.956-24.669z" fill="#ba3b0a" fill-rule="nonzero" stroke="none" stroke-width="1" stroke-linecap="butt" stroke-linejoin="miter" stroke-miterlimit="10" stroke-dasharray="" stroke-dashoffset="0" font-family="none" font-weight="none" font-size="none" text-anchor="none" style="mix-blend-mode: normal" data-fill-palette-color="tertiary"></path></g><g transform="matrix(1,0,0,1,112,102.11506862814835)"><svg viewBox="0 0 224 155.7698627437033" height="155.7698627437033" width="224"><g><svg viewBox="0 0 224 155.7698627437033" height="155.7698627437033" width="224"><g><svg viewBox="0 0 258.84339428571434 180" height="155.7698627437033" width="224"><g><svg viewBox="0 0 133.71428571428572 180" height="180" width="133.71428571428572"><g id="textblocktransform"><svg viewBox="0 0 133.71428571428572 180" height="180" width="133.71428571428572" id="textblock"><g><svg viewBox="0 0 133.71428571428572 180" height="180" width="133.71428571428572"><g transform="matrix(1,0,0,1,0,0)"><svg width="133.71428571428572" viewBox="2.0999999046325684 -35 26 35" height="180" data-palette-color="#ba3b0a"><path d="M27.8 0L2.1 0 2.1-2.8Q5.2-7.3 9.38-13.4 13.55-19.5 18.9-27.95L18.9-27.95Q19.7-29.2 20.48-30.35 21.25-31.5 22.2-32.6L22.2-32.6 10.85-32.55Q8-32.5 6.4-30.63 4.8-28.75 4.8-24.55L4.8-24.55 2.6-24.55 2.9-35 27.9-35 27.9-32.6 11.15-7.15Q10.05-5.55 9.2-4.42 8.35-3.3 7.45-2.4L7.45-2.4 18.6-2.45Q21.7-2.5 23.78-4.38 25.85-6.25 25.85-10.4L25.85-10.4 28.1-10.4 27.8 0Z" opacity="1" transform="matrix(1,0,0,1,0,0)" fill="#ba3b0a" class="wordmark-text-0" data-fill-palette-color="primary" id="text-0"></path></svg></g></svg></g></svg></g></svg></g><g transform="matrix(1,0,0,1,176.20796571428573,60.94251008329948)"><svg viewBox="0 0 82.63542857142858 58.114979833401044" height="58.114979833401044" width="82.63542857142858"><g><svg xmlns="http://www.w3.org/2000/svg" xmlns:xlink="http://www.w3.org/1999/xlink" version="1.1" x="0" y="0" viewBox="6.052999496459961 17.73909568786621 86.89399719238281 61.109901428222656" enable-background="new 0 0 100 100" xml:space="preserve" height="58.114979833401044" width="82.63542857142858" class="icon-icon-0" data-fill-palette-color="accent" id="icon-0"><path fill="#ba3b0a" d="M11.146 45.898l21.073-14.072c0.918-0.613 1.166-1.855 0.552-2.774-0.613-0.918-1.854-1.167-2.774-0.552L8.924 42.572c-1.798 1.2-2.871 3.208-2.871 5.37 0 2.162 1.073 4.17 2.871 5.37l21.073 14.072c0.341 0.228 0.727 0.337 1.109 0.337 0.646 0 1.28-0.312 1.665-0.889 0.614-0.919 0.366-2.161-0.552-2.774L11.146 49.985c-0.694-0.464-1.093-1.208-1.093-2.044C10.053 47.106 10.452 46.362 11.146 45.898z" data-fill-palette-color="accent"></path><path fill="#ba3b0a" d="M90.076 42.572L69.002 28.5c-0.918-0.614-2.161-0.366-2.774 0.552-0.614 0.919-0.366 2.161 0.552 2.774l21.073 14.072c0.694 0.464 1.093 1.208 1.093 2.043 0 0.835-0.398 1.58-1.093 2.044L66.781 64.058c-0.918 0.613-1.166 1.855-0.552 2.774 0.385 0.577 1.019 0.889 1.665 0.889 0.381 0 0.768-0.109 1.109-0.337l21.073-14.072c1.798-1.2 2.871-3.208 2.871-5.37C92.947 45.78 91.874 43.772 90.076 42.572z" data-fill-palette-color="accent"></path><path fill="#ba3b0a" d="M59.221 17.834c-1.052-0.335-2.177 0.245-2.513 1.297L38.481 76.241c-0.336 1.052 0.245 2.177 1.297 2.513 0.202 0.064 0.407 0.095 0.608 0.095 0.847 0 1.633-0.542 1.905-1.393l18.227-57.109C60.854 19.295 60.273 18.17 59.221 17.834z" data-fill-palette-color="accent"></path></svg></g></svg></g></svg></g></svg></g></svg></g></svg></g><defs></defs></svg><rect width="448" height="360" fill="none" stroke="none" visibility="hidden"></rect></g></svg></g></svg>